
<svg xmlns="http://www.w3.org/2000/svg" width="171" height="31" viewBox="0 0 171 31" fill="none">
<path d="M104.83 3.44405C96.0696 3.09528 87.2715 2.60841 78.5125 2.44714C63.7769 2.17585 49.0199 3.81964 35.3426 6.09587C24.6471 7.87586 11.638 10.1176 3.78609 14.3788C1.73113 15.494 0.293197 17.3459 2.32895 18.8234C4.67158 20.5236 9.6213 21.3958 13.0886 22.2026C18.4737 23.4556 23.8158 24.4654 29.5126 25.1714C54.1788 28.2281 80.8237 29.8021 105.684 28.6365C116.715 28.1193 127.976 27.339 138.696 26.0587C146.65 25.1086 155.077 24.0658 161.98 21.8854C166.19 20.5558 169.482 18.9925 169.959 16.3141C170.626 12.5648 164.04 9.39708 158.6 7.18741C148.93 3.26041 136.319 2.4481 124.72 1.9465C117.052 1.61493 109.244 1.13787 101.582 1.15251C95.3921 1.16435 88.7337 1.08111 82.7097 1.68575C75.0883 2.45075 68.5799 4.50011 62.2335 6.55597" stroke="#E31315" stroke-opacity="0.5" stroke-width="3" stroke-linecap="round"/>
</svg>