<svg width="101" height="95" viewBox="0 0 101 95" fill="none" xmlns="http://www.w3.org/2000/svg">
<path d="M77.7089 45.1393C77.7089 49.4089 75.7409 54.5989 74.6688 57.7839C73.2231 62.079 71.9205 66.9442 70.2606 70.7798C68.491 74.8689 66.8117 79.4266 64.8729 83.0731C63.979 84.7543 62.842 88.3074 61.9003 89.3954" stroke="white" stroke-width="10" stroke-linecap="round"/>
<path d="M47.9949 20.5789C45.7003 24.9067 40.5195 28.8996 37.505 31.4374C33.4399 34.8596 29.2423 38.952 25.1639 41.7704C20.8158 44.7752 16.3257 48.3132 12.01 50.7603C10.0202 51.8885 6.729 54.7576 4.99999 55.2537" stroke="white" stroke-width="10" stroke-linecap="round"/>
<path d="M95.4113 50.6806C95.4113 53.3289 95.4113 55.9772 95.4113 58.6255C95.4113 61.019 94.2708 63.4474 94.2708 66.0029" stroke="white" stroke-width="10" stroke-linecap="round"/>
<path d="M61.9044 36.5829C60.2544 39.7753 58.6044 42.9677 56.9544 46.1602C55.4631 49.0455 52.9413 51.4514 51.3491 54.5319" stroke="white" stroke-width="10" stroke-linecap="round"/>
<path d="M36.7814 5.58699C35.8571 5.97229 34.8264 5.80801 33.8937 6.12681C33.0601 6.41175 32.4962 7.24379 31.6172 7.41053C30.0843 7.70133 28.6935 8.70905 27.2343 8.90277" stroke="white" stroke-width="10" stroke-linecap="round"/>
</svg>
