<svg width="334" height="141" viewBox="0 0 334 141" fill="none" xmlns="http://www.w3.org/2000/svg">
<path d="M205.376 15.4212C188.543 14.751 171.652 13.4452 154.801 13.6436C126.453 13.9773 97.8561 23.1853 71.2706 35.2067C50.4809 44.6073 25.186 56.3969 9.60466 76.9852C5.52681 82.3735 2.55774 91.1075 6.31872 97.7326C10.6467 105.357 20.0847 108.863 26.6751 112.226C36.9104 117.45 47.0894 121.551 57.984 124.207C105.157 135.705 156.3 140.121 204.302 132.037C225.601 128.451 247.372 123.62 268.154 116.532C283.575 111.272 299.917 105.531 313.447 94.6851C321.697 88.0711 328.206 80.4734 329.413 68.0139C331.102 50.5727 318.762 36.6085 308.522 26.9591C290.325 9.81024 266.127 7.40829 243.842 6.3366C229.111 5.62819 214.125 4.26098 199.37 5.15578C187.447 5.87879 174.633 6.21188 162.967 9.66325C148.207 14.0299 135.451 24.2264 123.008 34.4356" stroke="white" stroke-width="8" stroke-linecap="round"/>
</svg>
