<svg width="1346" height="316" viewBox="0 0 1346 316" fill="none" xmlns="http://www.w3.org/2000/svg">
<path d="M209.442 220.667C174.162 220.667 154.182 199.067 154.182 163.607C154.182 127.967 175.962 107.267 209.442 107.267C243.642 107.267 264.702 127.967 264.702 163.607C264.702 199.067 244.722 220.667 209.442 220.667ZM209.262 193.127C226.362 193.127 232.482 182.327 232.482 163.427C232.482 146.147 226.182 135.347 209.442 135.347C192.702 135.347 186.402 146.327 186.402 163.427C186.402 182.147 192.702 193.127 209.262 193.127ZM275.547 102.407H306.147V217.967H275.547V102.407ZM339.996 219.767C326.856 219.767 315.696 212.207 315.696 194.927C315.696 179.807 324.696 169.367 348.456 169.367H367.536V163.427C367.536 157.127 364.476 153.347 357.996 153.347C352.236 153.347 348.816 156.407 347.736 162.527L319.116 156.227C321.636 141.467 333.156 129.407 359.256 129.407C386.796 129.407 397.956 141.827 397.956 163.607V217.967H369.156V197.447H366.636C362.316 210.587 354.396 219.767 339.996 219.767ZM367.536 184.127V180.887H354.936C348.996 180.887 344.496 184.127 344.496 188.987C344.496 193.847 347.016 196.907 354.396 196.907C362.316 196.907 367.536 191.507 367.536 184.127ZM411.954 102.407H442.554V217.967H411.954V102.407ZM476.402 219.767C463.262 219.767 452.102 212.207 452.102 194.927C452.102 179.807 461.102 169.367 484.862 169.367H503.942V163.427C503.942 157.127 500.882 153.347 494.402 153.347C488.642 153.347 485.222 156.407 484.142 162.527L455.522 156.227C458.042 141.467 469.562 129.407 495.662 129.407C523.202 129.407 534.362 141.827 534.362 163.607V217.967H505.562V197.447H503.042C498.722 210.587 490.802 219.767 476.402 219.767ZM503.942 184.127V180.887H491.342C485.402 180.887 480.902 184.127 480.902 188.987C480.902 193.847 483.422 196.907 490.802 196.907C498.722 196.907 503.942 191.507 503.942 184.127ZM590.3 220.667C562.04 220.667 544.94 203.567 544.94 174.947C544.94 146.147 562.04 129.227 590.3 129.227C618.2 129.227 635.3 146.147 635.3 174.947C635.3 203.567 618.2 220.667 590.3 220.667ZM590.12 154.607C579.32 154.607 575.54 161.807 575.54 174.947C575.54 188.087 579.32 194.927 590.12 194.927C600.92 194.927 604.88 188.087 604.88 174.947C604.88 161.807 600.92 154.607 590.12 154.607ZM688.543 182.507V109.967H720.943V182.507C720.943 193.487 718.423 202.307 713.203 209.147C707.983 215.987 699.163 219.407 686.743 219.407C680.443 219.407 675.763 218.687 671.623 217.967L673.063 190.607C676.123 191.147 678.823 191.507 680.803 191.507C686.023 191.507 688.543 187.727 688.543 182.507ZM776.431 220.667C750.871 220.667 731.971 207.167 731.971 177.467C731.971 147.047 747.991 129.227 776.971 129.227C804.151 129.227 816.391 144.887 816.391 168.467C816.391 172.607 816.391 175.847 815.851 180.347H762.031C762.931 192.407 767.431 196.367 776.611 196.367C785.791 196.367 788.131 192.407 789.751 187.547L815.311 194.387C811.351 208.607 802.531 220.667 776.431 220.667ZM762.031 168.647H788.491V167.747C788.491 156.947 784.531 151.727 776.071 151.727C767.251 151.727 762.931 156.227 762.031 168.647ZM847.3 219.767C834.16 219.767 823 212.207 823 194.927C823 179.807 832 169.367 855.76 169.367H874.84V163.427C874.84 157.127 871.78 153.347 865.3 153.347C859.54 153.347 856.12 156.407 855.04 162.527L826.42 156.227C828.94 141.467 840.46 129.407 866.56 129.407C894.1 129.407 905.26 141.827 905.26 163.607V217.967H876.46V197.447H873.94C869.62 210.587 861.7 219.767 847.3 219.767ZM874.84 184.127V180.887H862.24C856.3 180.887 851.8 184.127 851.8 188.987C851.8 193.847 854.32 196.907 861.7 196.907C869.62 196.907 874.84 191.507 874.84 184.127ZM948.958 131.927V155.147H950.938C955.978 137.687 965.878 129.227 978.658 129.227C993.238 129.227 1001.34 140.027 1001.34 158.747V217.967H970.738V167.567C970.738 160.907 967.318 156.767 961.378 156.767C954.178 156.767 949.858 162.707 949.858 170.807V217.967H919.258V131.927H948.958ZM1044.58 131.927V155.147H1046.56C1051.6 137.687 1061.5 129.227 1074.28 129.227C1088.86 129.227 1096.96 140.027 1096.96 158.747V217.967H1066.36V167.567C1066.36 160.907 1062.94 156.767 1057 156.767C1049.8 156.767 1045.48 162.707 1045.48 170.807V217.967H1014.88V131.927H1044.58ZM1151.55 220.667C1125.99 220.667 1107.09 207.167 1107.09 177.467C1107.09 147.047 1123.11 129.227 1152.09 129.227C1179.27 129.227 1191.51 144.887 1191.51 168.467C1191.51 172.607 1191.51 175.847 1190.97 180.347H1137.15C1138.05 192.407 1142.55 196.367 1151.73 196.367C1160.91 196.367 1163.25 192.407 1164.87 187.547L1190.43 194.387C1186.47 208.607 1177.65 220.667 1151.55 220.667ZM1137.15 168.647H1163.61V167.747C1163.61 156.947 1159.65 151.727 1151.19 151.727C1142.37 151.727 1138.05 156.227 1137.15 168.647Z" fill="white"/>
<path d="M1183.11 87.2342C1183.11 79.4905 1186.68 70.0774 1188.62 64.3008C1191.24 56.5108 1193.6 47.6868 1196.61 40.7303C1199.82 33.3139 1202.87 25.0476 1206.38 18.434C1208 15.3848 1210.07 8.94051 1211.77 6.96729" stroke="white" stroke-width="12" stroke-linecap="round"/>
<path d="M1237 131.777C1241.16 123.928 1250.56 116.686 1256.02 112.083C1263.4 105.876 1271.01 98.4539 1278.41 93.3421C1286.29 87.8923 1294.43 81.4756 1302.26 77.0372C1305.87 74.9908 1311.84 69.7873 1314.97 68.8874" stroke="white" stroke-width="12" stroke-linecap="round"/>
<path d="M1151 77.1841C1151 72.3809 1151 67.5777 1151 62.7744C1151 58.4333 1153.06 54.0289 1153.06 49.394" stroke="white" stroke-width="12" stroke-linecap="round"/>
<path d="M1211.77 102.749C1214.77 96.9593 1217.76 91.17 1220.75 85.3807C1223.45 80.1483 1228.03 75.785 1230.91 70.1986" stroke="white" stroke-width="12" stroke-linecap="round"/>
<path d="M1257.34 158.97C1259.01 158.271 1260.88 158.568 1262.57 157.99C1264.08 157.473 1265.11 155.964 1266.7 155.661C1269.48 155.134 1272 153.306 1274.65 152.954" stroke="white" stroke-width="12" stroke-linecap="round"/>
<path d="M442.924 49.4339C411.584 48.1861 380.142 45.6087 348.76 46.1786C295.965 47.1373 242.628 66.6681 193.009 92.0673C154.208 111.929 106.995 136.832 77.7904 180.057C70.1471 191.369 64.5378 209.673 71.4807 223.501C79.4702 239.415 97.0138 246.665 109.255 253.642C128.268 264.479 147.186 272.968 167.449 278.424C255.189 302.052 350.388 310.823 439.854 293.467C479.549 285.766 520.135 275.459 558.902 260.435C587.668 249.287 618.152 237.124 643.447 214.304C658.873 200.388 671.064 184.43 673.425 158.347C676.73 121.835 653.878 92.7276 634.899 72.6299C601.169 36.9125 556.129 32.1086 514.64 30.0708C487.215 28.7237 459.319 26.0004 431.833 28.0083C409.624 29.6307 385.759 30.4454 364.002 37.7747C336.475 47.0475 312.629 68.5013 289.362 89.9786" stroke="white" stroke-width="8" stroke-linecap="round"/>
<path d="M673 275.267C684.11 275.267 695.223 273.146 706.303 272.537C730.405 271.213 754.781 271.917 778.942 271.917C810.691 271.917 844.777 269.446 876.304 272.475C911.854 275.891 947.595 278.617 983.436 278.617C1054.19 278.617 1125.08 281.967 1196 281.967" stroke="white" stroke-width="5" stroke-linecap="round"/>
</svg>
